Coordinates
version=1
nRows=14
nColumns=63
inDegrees=yes

Units are S.I. units (second, meters, Newtons, ...)
If the header above contains a line with 'inDegrees', this indicates whether rotational values are in degrees (yes) or radians (no).

endheader
time	pelvis_tilt	pelvis_list	pelvis_rotation	pelvis_tx	pelvis_ty	pelvis_tz	hip_flexion_r	hip_adduction_r	hip_rotation_r	knee_angle_r	knee_angle_r_beta	ankle_angle_r	subtalar_angle_r	mtp_angle_r	hip_flexion_l	hip_adduction_l	hip_rotation_l	knee_angle_l	knee_angle_l_beta	ankle_angle_l	subtalar_angle_l	mtp_angle_l	L5_S1_Flex_Ext	L5_S1_Lat_Bending	L5_S1_axial_rotation	L4_L5_Flex_Ext	L4_L5_Lat_Bending	L4_L5_axial_rotation	L3_L4_Flex_Ext	L3_L4_Lat_Bending	L3_L4_axial_rotation	L2_L3_Flex_Ext	L2_L3_Lat_Bending	L2_L3_axial_rotation	L1_L2_Flex_Ext	L1_L2_Lat_Bending	L1_L2_axial_rotation	L1_T12_Flex_Ext	L1_T12_Lat_Bending	L1_T12_axial_rotation	Abs_r3	Abs_r2	Abs_r1	Abs_t1	Abs_t2	neck_flexion	neck_bending	neck_rotation	arm_flex_r	arm_add_r	arm_rot_r	elbow_flex_r	pro_sup_r	wrist_flex_r	wrist_dev_r	arm_flex_l	arm_add_l	arm_rot_l	elbow_flex_l	pro_sup_l	wrist_flex_l	wrist_dev_l
2.066667	-1.571969	-4.462629	64.609562	0.293563	1.089362	0.307029	8.879432	-2.930346	5.687011	19.428043	0.339083	28.220493	16.191200	0.000000	1.703191	1.123581	-23.237224	13.094691	0.228545	33.525122	2.774340	0.000000	-0.160216	-0.999801	-1.125622	-0.297536	-1.329735	-1.195973	-0.263218	-2.430916	-1.195973	-0.183110	-2.430916	-0.984919	-0.148776	-2.038794	-0.914568	-0.091547	-1.548691	-0.844216	-1.144404	-11.309946	-6.260372	0.000000	0.000000	5.706682	-1.189175	-42.399634	-5.257372	-54.145393	-27.571877	102.579209	82.222587	24.206230	35.661754	1.237847	-19.272762	32.389308	35.224556	90.898785	-5.134558	5.388827
2.083333	-1.300395	-5.025475	65.276692	0.291601	1.088577	0.307071	9.121523	-2.540620	5.214087	19.087180	0.333134	27.742200	15.539799	0.000000	2.106038	0.756500	-21.886472	12.990179	0.226721	33.183424	1.936728	0.000000	-0.154157	-0.924998	-1.169470	-0.286285	-1.230247	-1.242562	-0.253265	-2.249039	-1.242562	-0.176186	-2.249039	-1.023286	-0.143150	-1.886255	-0.950194	-0.088085	-1.432821	-0.877102	-1.101129	-10.463757	-6.504241	0.000000	0.000000	5.747673	-1.567164	-43.766661	-3.361175	-56.924608	-31.951446	103.622808	83.102549	21.342644	34.614351	2.508297	-18.737388	39.565557	32.800018	87.996670	-4.198936	4.810843
2.100000	-1.095402	-5.540043	65.916059	0.290021	1.087745	0.307253	9.324760	-2.201073	4.837491	18.733869	0.326968	27.235867	14.663795	0.000000	2.433456	0.422961	-21.078190	12.793806	0.223294	32.973269	1.897883	0.000000	-0.147888	-0.860856	-1.222220	-0.274643	-1.144938	-1.298608	-0.242965	-2.093085	-1.298608	-0.169021	-2.093085	-1.069442	-0.137329	-1.755457	-0.993054	-0.084503	-1.333466	-0.916665	-1.056349	-9.738173	-6.797620	0.000000	0.000000	6.237633	-1.675780	-44.677432	-0.470598	-59.696535	-35.057972	103.767891	83.008358	18.555828	32.837911	3.055179	-18.619962	41.358318	32.023995	88.822021	-4.130184	5.114415
2.116667	-0.893869	-6.016041	66.519291	0.288565	1.086999	0.307396	9.440957	-1.868554	4.548100	18.311492	0.319596	26.651732	13.605246	0.000000	2.673855	0.103408	-20.408068	12.492964	0.218043	32.802038	2.092455	0.000000	-0.142290	-0.796696	-1.265711	-0.264247	-1.059605	-1.344818	-0.233769	-1.937086	-1.344818	-0.162624	-1.937086	-1.107497	-0.132131	-1.624622	-1.028390	-0.081305	-1.234082	-0.949283	-1.016366	-9.012381	-7.039503	0.000000	0.000000	7.053947	-1.621142	-45.178446	3.384973	-62.450472	-36.861819	103.142478	82.358443	15.764907	30.562029	3.540972	-18.453089	43.049426	31.190671	89.198346	-4.217988	5.172924
2.133333	-0.724311	-6.444830	67.019417	0.287402	1.086363	0.307492	9.486345	-1.560570	4.418154	17.835441	0.311287	26.017710	12.385149	0.000000	2.836697	-0.183453	-19.937441	12.115100	0.211448	32.671542	2.511744	0.000000	-0.135285	-0.737054	-1.281102	-0.251237	-0.980282	-1.361171	-0.222259	-1.792074	-1.361171	-0.154617	-1.792074	-1.120964	-0.125625	-1.503001	-1.040895	-0.077302	-1.141697	-0.960826	-0.966324	-8.337705	-7.125104	0.000000	0.000000	8.141946	-1.439501	-45.326776	7.819987	-65.151075	-37.649982	102.007765	81.399893	12.697686	28.330756	3.971775	-18.242166	44.618316	30.290894	89.246463	-4.450968	4.986179
2.150000	-0.608834	-6.811278	67.423760	0.286571	1.085863	0.307492	9.452352	-1.301992	4.461619	17.303043	0.301995	25.360233	11.017085	0.000000	2.924822	-0.416140	-19.638635	11.675865	0.203782	32.583272	3.149023	0.000000	-0.126434	-0.686310	-1.273581	-0.234801	-0.912793	-1.353180	-0.207719	-1.668695	-1.353180	-0.144502	-1.668695	-1.114383	-0.117407	-1.399524	-1.034785	-0.072245	-1.063095	-0.955186	-0.903107	-7.763680	-7.083275	0.000000	0.000000	9.406599	-1.184720	-45.231279	12.690170	-67.628460	-37.613464	100.429892	80.400865	9.844218	26.318849	4.307410	-18.009314	45.987940	29.366193	88.929309	-4.847626	4.581083
2.166667	-0.548718	-7.105305	67.698420	0.286096	1.085500	0.307382	9.347314	-1.099687	4.667717	16.739970	0.292168	24.728320	9.592530	0.000000	2.937224	-0.588755	-19.497565	11.194689	0.195384	32.535508	3.926872	0.000000	-0.115842	-0.645440	-1.238212	-0.215130	-0.858436	-1.315600	-0.190316	-1.569324	-1.315600	-0.132396	-1.569324	-1.083436	-0.107571	-1.316182	-1.006047	-0.066192	-0.999787	-0.928659	-0.827446	-7.301350	-6.886565	0.000000	0.000000	10.748347	-0.922794	-45.026603	17.938198	-69.831869	-36.689811	98.465106	79.351784	7.476505	24.582725	4.556018	-17.753887	47.240817	28.403524	88.214741	-5.408195	3.940074
2.183333	-0.541115	-7.317223	67.854172	0.285944	1.085286	0.307160	9.171573	-0.961200	4.982913	16.167333	0.282173	24.162240	8.210937	0.000000	2.876114	-0.704800	-19.508111	10.700273	0.186755	32.533704	4.835573	0.000000	-0.104190	-0.615592	-1.186093	-0.193492	-0.818737	-1.260224	-0.171174	-1.496750	-1.260224	-0.119079	-1.496750	-1.037831	-0.096751	-1.255315	-0.963700	-0.059534	-0.953552	-0.889570	-0.744220	-6.963698	-6.596692	0.000000	0.000000	12.036795	-0.706649	-44.845461	23.656598	-71.701766	-34.701771	96.084386	78.331868	6.155097	23.108555	4.678168	-17.491458	48.318752	27.435796	87.146832	-6.155243	3.073355
2.200000	-0.612832	-7.428083	67.863807	0.286241	1.085269	0.306862	8.931564	-0.906676	5.472659	15.600306	0.272277	23.681165	6.842232	0.000000	2.738672	-0.722304	-19.603382	10.195139	0.177939	32.540912	5.710305	0.000000	-0.090571	-0.603586	-1.108707	-0.168199	-0.802769	-1.178001	-0.148799	-1.467558	-1.178001	-0.103514	-1.467558	-0.970119	-0.084104	-1.230832	-0.900825	-0.051752	-0.934954	-0.831530	-0.646939	-6.827882	-6.166297	0.000000	0.000000	13.207230	-0.452605	-44.733355	28.972320	-73.274634	-32.511897	93.439646	77.331734	6.050128	21.993141	4.667749	-17.261976	49.098847	26.507482	86.098852	-6.915718	2.087752
2.216667	-0.725272	-7.436611	67.723410	0.286839	1.085422	0.306525	8.632574	-0.923670	5.982995	15.068184	0.262989	23.331611	5.751848	0.000000	2.520703	-0.679355	-19.857656	9.716913	0.169592	32.585735	6.610402	0.000000	-0.077896	-0.604152	-1.016865	-0.144660	-0.803522	-1.080419	-0.127975	-1.468935	-1.080419	-0.089027	-1.468935	-0.889757	-0.072334	-1.231986	-0.826203	-0.044510	-0.935831	-0.762649	-0.556401	-6.834287	-5.655498	0.000000	0.000000	14.203581	-0.206752	-44.684051	34.926236	-74.677274	-28.770588	90.461624	76.134674	7.319006	21.293825	4.525104	-17.073648	49.636512	25.633348	84.978340	-7.714669	1.013367
2.233333	-0.859847	-7.344270	67.476778	0.287677	1.085765	0.306151	8.256058	-0.990098	6.543427	14.549675	0.253940	23.089400	4.861898	0.000000	2.231919	-0.590419	-20.198227	9.294796	0.162225	32.658066	7.452577	0.000000	-0.067449	-0.616401	-0.925979	-0.125260	-0.819813	-0.983853	-0.110812	-1.498717	-0.983853	-0.077088	-1.498717	-0.810232	-0.062633	-1.256965	-0.752358	-0.038541	-0.954805	-0.694484	-0.481784	-6.972850	-5.150019	0.000000	0.000000	14.966994	0.062624	-44.664062	41.362581	-75.883531	-23.653450	87.142081	74.760432	10.034535	21.034617	4.244046	-16.962616	49.971812	24.854461	83.742469	-8.572220	-0.101533
2.250000	-1.004746	-7.164192	67.133767	0.288674	1.086272	0.305756	7.835402	-1.104124	7.031213	14.083017	0.245795	22.958736	4.330478	0.000000	1.887762	-0.455235	-20.545614	8.935552	0.155955	32.723381	8.096938	0.000000	-0.060024	-0.637993	-0.835981	-0.111471	-0.848531	-0.888230	-0.098614	-1.551216	-0.888230	-0.068602	-1.551216	-0.731484	-0.055738	-1.300995	-0.679235	-0.034298	-0.988251	-0.626986	-0.428747	-7.217104	-4.649478	0.000000	0.000000	15.519630	0.351041	-44.653036	48.169187	-76.935523	-17.310668	83.664631	73.525870	13.835819	21.217969	3.880777	-16.935072	50.235822	24.160636	82.491160	-9.458249	-1.238123
2.266667	-1.139824	-6.927750	66.715716	0.289763	1.086883	0.305324	7.405307	-1.242719	7.367989	13.689728	0.238931	22.934268	4.229891	0.000000	1.516682	-0.294719	-20.835584	8.649957	0.150970	32.769976	8.450524	0.000000	-0.054802	-0.664285	-0.744043	-0.101773	-0.883500	-0.790546	-0.090034	-1.615144	-0.790546	-0.062633	-1.615144	-0.651038	-0.050889	-1.354611	-0.604535	-0.031314	-1.028978	-0.558032	-0.391446	-7.514530	-4.138145	0.000000	0.000000	15.877876	0.640356	-44.650577	55.081886	-77.789491	-10.156475	80.214050	72.676684	18.376094	21.860641	3.496150	-16.977022	50.530202	23.543473	81.292709	-10.301063	-2.324473
2.283333	-1.241046	-6.654363	66.263341	0.290872	1.087549	0.304860	6.982057	-1.381077	7.508598	13.383884	0.233593	23.007599	4.559545	0.000000	1.136278	-0.144113	-21.100388	8.456716	0.147598	32.821345	8.599240	0.000000	-0.053952	-0.690951	-0.655756	-0.100194	-0.918965	-0.696741	-0.088637	-1.679978	-0.696741	-0.061661	-1.679978	-0.573787	-0.050100	-1.408987	-0.532802	-0.030828	-1.070283	-0.491817	-0.385371	-7.816173	-3.647121	0.000000	0.000000	16.085448	0.899770	-44.650594	61.934768	-78.409853	-2.576598	76.936958	72.282717	23.315222	22.997007	3.115478	-17.071385	50.820122	23.022468	80.217516	-10.958372	-3.251943
